<?xml version="1.0" encoding="utf-8"?>
<!-- Generator: Adobe Illustrator 26.5.0, SVG Export Plug-In . SVG Version: 6.00 Build 0)  -->
<svg version="1.1" xmlns="http://www.w3.org/2000/svg" xmlns:xlink="http://www.w3.org/1999/xlink" x="0px" y="0px"
	 viewBox="0 0 276.63 189.47" style="enable-background:new 0 0 276.63 189.47;" xml:space="preserve">
<g id="BACKGROUND">
</g>
<g id="ELEMENTS">
	<g>
		<g>
			<path d="M159.03,64.82c-2.53,0-4.59,2.05-4.59,4.59c0,2.53,2.05,4.59,4.59,4.59c2.53,0,4.59-2.05,4.59-4.59
				C163.62,66.87,161.57,64.82,159.03,64.82z"/>
			<path d="M138.64,70.7c-10.63,0-19.27,8.65-19.27,19.27c0,10.63,8.65,19.27,19.27,19.27c10.63,0,19.27-8.65,19.27-19.27
				C157.91,79.34,149.26,70.7,138.64,70.7z M138.64,102.32c-6.81,0-12.35-5.54-12.35-12.35s5.54-12.34,12.35-12.34
				c6.81,0,12.34,5.54,12.34,12.34S145.44,102.32,138.64,102.32z"/>
			<path d="M153.94,129.1h-31.24c-12.96,0-23.51-10.54-23.51-23.51V74.35c0-12.96,10.54-23.51,23.51-23.51h31.24
				c12.96,0,23.51,10.54,23.51,23.51v31.24C177.44,118.55,166.9,129.1,153.94,129.1z M122.69,58.21c-8.9,0-16.14,7.24-16.14,16.14
				v31.24c0,8.9,7.24,16.14,16.14,16.14h31.24c8.9,0,16.14-7.24,16.14-16.14V74.35c0-8.9-7.24-16.14-16.14-16.14H122.69z"/>
		</g>
	</g>
</g>
<g id="TEXT">
</g>
</svg>
