<?xml version="1.0" encoding="utf-8"?>
<!-- Generator: Adobe Illustrator 26.5.0, SVG Export Plug-In . SVG Version: 6.00 Build 0)  -->
<svg version="1.1" xmlns="http://www.w3.org/2000/svg" xmlns:xlink="http://www.w3.org/1999/xlink" x="0px" y="0px"
	 viewBox="0 0 108.38 89.43" style="enable-background:new 0 0 108.38 89.43;" xml:space="preserve">
<g id="BACKGROUND">
</g>
<g id="ELEMENTS">
	<path d="M72.71,31.79c-1.23,0.56-2.6,0.9-3.93,1.12c0.63-0.11,1.56-1.25,1.93-1.71c0.57-0.71,1.04-1.51,1.3-2.38
		c0.03-0.07,0.06-0.15-0.01-0.2c-0.09-0.03-0.14-0.02-0.21,0.02c-1.49,0.8-3.03,1.37-4.66,1.78c-0.14,0.03-0.24,0-0.32-0.09
		c-0.14-0.15-0.26-0.3-0.41-0.42c-0.69-0.59-1.43-1.04-2.26-1.38c-1.09-0.45-2.29-0.63-3.46-0.56c-1.15,0.07-2.27,0.4-3.29,0.93
		c-1.02,0.53-1.93,1.27-2.65,2.17c-0.75,0.92-1.3,2.01-1.58,3.17c-0.27,1.12-0.25,2.22-0.08,3.35c0.02,0.19,0.01,0.21-0.16,0.19
		c-6.4-0.95-11.71-3.24-16.02-8.15c-0.19-0.21-0.29-0.21-0.44,0.02c-1.89,2.83-0.97,7.37,1.38,9.6c0.31,0.3,0.64,0.59,0.98,0.87
		c-0.13,0.03-1.69-0.14-3.09-0.87c-0.19-0.12-0.28-0.05-0.3,0.16c-0.02,0.31,0.01,0.59,0.05,0.92c0.36,2.87,2.35,5.51,5.06,6.55
		c0.32,0.14,0.68,0.25,1.03,0.31c-0.62,0.14-1.26,0.23-3.03,0.09c-0.22-0.04-0.31,0.07-0.22,0.28c1.33,3.64,4.21,4.72,6.37,5.33
		c0.29,0.05,0.58,0.05,0.87,0.12c-0.02,0.03-0.04,0.03-0.05,0.05c-0.71,1.09-3.19,1.9-4.35,2.31c-2.1,0.73-4.39,1.06-6.61,0.85
		c-0.36-0.05-0.43-0.05-0.53,0c-0.1,0.06-0.01,0.15,0.1,0.24c0.45,0.3,0.91,0.56,1.38,0.82c1.41,0.75,2.88,1.34,4.42,1.77
		c7.94,2.19,16.88,0.58,22.84-5.34c4.68-4.65,6.32-11.06,6.32-17.48c0-0.25,0.3-0.39,0.47-0.52c1.22-0.91,2.2-2.01,3.11-3.23
		c0.2-0.27,0.21-0.52,0.21-0.62c0-0.02,0-0.03,0-0.03C72.87,31.69,72.87,31.72,72.71,31.79z"/>
</g>
<g id="TEXT">
</g>
</svg>
